<svg width="139" height="60" viewBox="0 0 139 60" fill="none" xmlns="http://www.w3.org/2000/svg">
<path d="M0.384 29.808C0.384 27.3813 0.661334 25.0067 1.216 22.684C1.80533 20.3267 2.62 18.108 3.66 16.028C4.7 13.9133 5.93067 11.9893 7.352 10.256C8.808 8.488 10.3853 6.96267 12.084 5.68C13.8173 4.39733 15.6547 3.40933 17.596 2.716C19.5373 1.988 21.5307 1.624 23.576 1.624C25.968 1.624 27.8227 2.12666 29.14 3.132C30.492 4.13733 31.168 5.54133 31.168 7.344C31.168 8.03733 31.064 8.748 30.856 9.476C30.6827 10.204 30.4053 10.932 30.024 11.66C29.6773 12.3533 29.2613 13.0293 28.776 13.688C28.2907 14.3467 27.7533 14.9187 27.164 15.404C26.2627 15.2653 25.4827 14.8667 24.824 14.208C24.1653 13.5147 23.7493 12.7173 23.576 11.816C24.7893 10.8107 25.7427 9.77066 26.436 8.696C27.164 7.58667 27.528 6.58133 27.528 5.68C27.528 4.15466 26.5747 3.392 24.668 3.392C23.8707 3.392 23.0387 3.56533 22.172 3.912C21.34 4.224 20.4907 4.67466 19.624 5.264C18.7573 5.85333 17.908 6.564 17.076 7.396C16.2787 8.228 15.5333 9.14667 14.84 10.152C10.0213 17.0853 7.612 24.1747 7.612 31.42C7.612 33.9853 8.01067 36.048 8.808 37.608C9.60533 39.168 10.6627 40.0867 11.98 40.364C13.4707 40.0173 15.36 39.064 17.648 37.504C19.936 35.944 22.432 33.916 25.136 31.42C25.4827 31.7667 25.6907 32.1307 25.76 32.512C24.7547 33.8293 23.7147 35.0947 22.64 36.308C21.5653 37.5213 20.4907 38.6307 19.416 39.636C18.376 40.6413 17.336 41.5253 16.296 42.288C15.2907 43.0507 14.3547 43.64 13.488 44.056C9.18933 43.9867 5.93067 42.756 3.712 40.364C1.49333 37.972 0.384 34.4533 0.384 29.808ZM39.4689 41.82C37.4929 41.612 35.9156 40.7453 34.7369 39.22C33.5582 37.6947 32.9689 35.7533 32.9689 33.396C32.9689 32.0093 33.1769 30.5707 33.5929 29.08C34.0089 27.5893 34.5982 26.1507 35.3609 24.764C36.1236 23.3427 37.0249 22.008 38.0649 20.76C39.1049 19.512 40.2316 18.4373 41.4449 17.536C43.3516 16.1147 45.1369 15.404 46.8009 15.404C47.9102 15.9933 49.0022 17.224 50.0769 19.096C50.2502 19.096 50.4062 19.096 50.5449 19.096C50.6836 19.0613 50.8396 19.044 51.0129 19.044C52.8502 19.044 53.7689 20.6733 53.7689 23.932C53.7689 26.116 53.4049 28.196 52.6769 30.172C51.9836 32.1133 50.9956 33.8813 49.7129 35.476C48.4649 37.0707 46.9569 38.4227 45.1889 39.532C43.4556 40.6067 41.5489 41.3693 39.4689 41.82ZM42.1209 25.44C41.5316 26.2373 40.9769 27.104 40.4569 28.04C39.9369 28.976 39.4862 29.9293 39.1049 30.9C38.7236 31.836 38.4289 32.7547 38.2209 33.656C38.0129 34.5227 37.9089 35.3027 37.9089 35.996C37.9089 36.828 38.0476 37.6253 38.3249 38.388C38.6022 39.1507 38.9142 39.584 39.2609 39.688C40.8209 39.3413 42.2422 38.7 43.5249 37.764C44.8422 36.7933 45.9689 35.5973 46.9049 34.176C47.8756 32.7547 48.6209 31.1427 49.1409 29.34C49.6956 27.5373 49.9729 25.6133 49.9729 23.568C49.9729 22.6667 49.9209 21.956 49.8169 21.436C49.7129 20.916 49.5396 20.4653 49.2969 20.084C47.7716 20.5347 46.4022 21.2627 45.1889 22.268C44.0102 23.2733 42.9876 24.3307 42.1209 25.44ZM95.8763 2.456C95.287 2.456 94.6456 2.82 93.9523 3.548C93.259 4.276 92.5136 5.29867 91.7163 6.616C90.9536 7.89867 90.1736 9.44133 89.3763 11.244C88.6136 13.0467 87.8683 15.04 87.1403 17.224C87.9376 17.2587 88.7696 17.3107 89.6363 17.38C90.5376 17.4147 91.3003 17.484 91.9243 17.588C91.9936 17.7267 92.0283 17.9693 92.0283 18.316C92.0283 18.6973 91.9763 19.1133 91.8723 19.564C91.803 20.0147 91.6816 20.3613 91.5083 20.604C90.6416 20.5347 89.775 20.4653 88.9083 20.396C88.0763 20.292 87.2096 20.2053 86.3083 20.136C84.575 25.6133 83.015 30.38 81.6283 34.436C80.2763 38.492 79.011 41.9587 77.8323 44.836C76.6883 47.748 75.6136 50.1227 74.6083 51.96C73.603 53.7973 72.5803 55.236 71.5403 56.276C70.5003 57.3507 69.4083 58.0787 68.2643 58.46C67.155 58.876 65.9243 59.084 64.5723 59.084C63.0123 59.084 61.695 58.8413 60.6203 58.356C59.5803 57.9053 58.6096 57.2813 57.7083 56.484C56.6683 57.4547 55.5936 58.1307 54.4843 58.512C53.3403 58.8933 52.075 59.084 50.6883 59.084C48.227 59.084 46.1296 58.252 44.3963 56.588C44.3963 56.3453 44.4656 56.0853 44.6043 55.808C44.743 55.5307 44.899 55.34 45.0723 55.236C45.5576 55.8253 46.199 56.276 46.9963 56.588C47.7936 56.9347 48.6256 57.108 49.4923 57.108C50.3936 57.108 51.2256 56.9 51.9883 56.484C52.7163 56.1027 53.4443 55.444 54.1723 54.508C54.8656 53.572 55.559 52.3413 56.2523 50.816C56.9803 49.2907 57.7603 47.4013 58.5923 45.148C59.875 41.6813 61.123 37.9373 62.3363 33.916C63.5496 29.8947 64.8843 25.4053 66.3403 20.448C65.543 20.5173 64.763 20.5867 64.0003 20.656C63.2376 20.7253 62.527 20.7947 61.8683 20.864C61.7296 20.7253 61.6083 20.5347 61.5043 20.292C61.435 20.0493 61.4003 19.824 61.4003 19.616C61.851 19.4773 62.5443 19.3213 63.4803 19.148C64.451 18.94 65.595 18.732 66.9123 18.524C67.7096 15.924 68.5763 13.584 69.5123 11.504C70.4483 9.424 71.471 7.63866 72.5803 6.148C73.6896 4.65733 74.8856 3.51333 76.1683 2.716C77.4856 1.91867 78.907 1.52 80.4323 1.52C81.7843 1.52 83.067 1.86667 84.2803 2.56C85.5283 3.25333 86.6723 3.99866 87.7123 4.796C88.8563 3.58267 90.0523 2.612 91.3003 1.884C92.583 1.156 93.831 0.792 95.0443 0.792C95.4256 0.792 95.807 0.826666 96.1883 0.895998C96.6043 0.930664 96.9163 0.947998 97.1243 0.947998C97.4363 0.705332 97.8523 0.497333 98.3723 0.323999C98.8923 0.115998 99.343 0.0119972 99.7243 0.0119972C100.14 0.0119972 100.678 0.237331 101.336 0.687998C101.059 1.17333 100.764 1.832 100.452 2.664C100.14 3.496 99.8803 4.31067 99.6723 5.108C98.8056 7.67333 97.887 9.33733 96.9163 10.1C96.535 10.1 96.327 9.59733 96.2923 8.592C96.223 7.82933 96.0843 7.17066 95.8763 6.616C95.703 6.02666 95.6163 5.38533 95.6163 4.692C95.6163 4.484 95.6336 4.24133 95.6683 3.964C95.703 3.652 95.7723 3.14933 95.8763 2.456ZM72.0603 45.148C72.6496 43.5533 73.2736 41.7507 73.9323 39.74C74.591 37.7293 75.2496 35.632 75.9083 33.448C76.6016 31.264 77.295 29.028 77.9883 26.74C78.6816 24.4173 79.3403 22.1467 79.9643 19.928H78.9763C78.075 19.928 77.1043 19.9453 76.0643 19.98C75.059 19.98 74.019 19.9973 72.9443 20.032C71.3496 25.1973 69.8936 29.7387 68.5763 33.656C67.2936 37.5387 66.0803 40.9013 64.9363 43.744C63.827 46.6213 62.7523 48.996 61.7123 50.868C60.707 52.7747 59.7016 54.3173 58.6963 55.496C59.2163 55.9813 59.8576 56.3627 60.6203 56.64C61.4176 56.952 62.1976 57.108 62.9603 57.108C63.827 57.108 64.6243 56.9 65.3523 56.484C66.115 56.1027 66.843 55.444 67.5363 54.508C68.2643 53.572 68.9923 52.3413 69.7203 50.816C70.4483 49.2907 71.2283 47.4013 72.0603 45.148ZM80.6923 17.276C81.3163 15.2307 82.1136 13.272 83.0843 11.4C84.0896 9.528 85.199 7.82933 86.4123 6.304C85.6496 5.81866 84.939 5.48933 84.2803 5.316C83.6216 5.14266 83.1536 5.056 82.8763 5.056C81.975 5.056 81.143 5.33333 80.3803 5.888C79.6176 6.408 78.8723 7.20533 78.1443 8.28C77.4163 9.35466 76.6883 10.672 75.9603 12.232C75.267 13.792 74.5216 15.612 73.7243 17.692C74.8336 17.588 75.9603 17.5013 77.1043 17.432C78.283 17.3627 79.479 17.3107 80.6923 17.276ZM113.234 18.472C113.095 20.6213 112.714 22.476 112.09 24.036C111.466 25.5613 110.564 26.9133 109.386 28.092C108.242 29.236 106.838 30.276 105.174 31.212C103.51 32.148 101.568 33.0493 99.3497 33.916C99.3497 34.124 99.3324 34.3493 99.2977 34.592C99.2977 34.8 99.2977 35.0253 99.2977 35.268C99.2977 35.7187 99.3324 36.1867 99.4017 36.672C99.4711 37.1573 99.5924 37.608 99.7657 38.024C99.9391 38.44 100.182 38.7867 100.494 39.064C100.806 39.3067 101.204 39.428 101.69 39.428C102.626 39.428 103.544 39.22 104.446 38.804C105.347 38.388 106.196 37.8853 106.994 37.296C107.826 36.672 108.588 36.0133 109.282 35.32C110.01 34.592 110.651 33.9333 111.206 33.344C111.552 33.656 111.847 33.9507 112.09 34.228C110.53 36.308 108.814 38.0413 106.942 39.428C105.104 40.78 103.354 41.6467 101.69 42.028C99.2977 41.7507 97.4257 40.884 96.0737 39.428C94.7564 37.9373 94.0977 36.152 94.0977 34.072C94.0977 32.6507 94.2884 31.212 94.6697 29.756C95.0857 28.2653 95.6404 26.844 96.3337 25.492C97.0617 24.1053 97.8937 22.8053 98.8297 21.592C99.8004 20.3787 100.823 19.3213 101.898 18.42C103.007 17.5187 104.134 16.808 105.278 16.288C106.456 15.768 107.618 15.508 108.762 15.508C110.356 15.716 111.847 16.704 113.234 18.472ZM109.646 20.188C108.71 20.3267 107.739 20.708 106.734 21.332C105.728 21.956 104.775 22.788 103.874 23.828C103.007 24.868 102.21 26.0813 101.482 27.468C100.754 28.8547 100.182 30.3453 99.7657 31.94C102.539 30.5533 104.844 28.8547 106.682 26.844C108.519 24.7987 109.507 22.58 109.646 20.188ZM138.417 18.472C138.279 20.6213 137.897 22.476 137.273 24.036C136.649 25.5613 135.748 26.9133 134.569 28.092C133.425 29.236 132.021 30.276 130.357 31.212C128.693 32.148 126.752 33.0493 124.533 33.916C124.533 34.124 124.516 34.3493 124.481 34.592C124.481 34.8 124.481 35.0253 124.481 35.268C124.481 35.7187 124.516 36.1867 124.585 36.672C124.655 37.1573 124.776 37.608 124.949 38.024C125.123 38.44 125.365 38.7867 125.677 39.064C125.989 39.3067 126.388 39.428 126.873 39.428C127.809 39.428 128.728 39.22 129.629 38.804C130.531 38.388 131.38 37.8853 132.177 37.296C133.009 36.672 133.772 36.0133 134.465 35.32C135.193 34.592 135.835 33.9333 136.389 33.344C136.736 33.656 137.031 33.9507 137.273 34.228C135.713 36.308 133.997 38.0413 132.125 39.428C130.288 40.78 128.537 41.6467 126.873 42.028C124.481 41.7507 122.609 40.884 121.257 39.428C119.94 37.9373 119.281 36.152 119.281 34.072C119.281 32.6507 119.472 31.212 119.853 29.756C120.269 28.2653 120.824 26.844 121.517 25.492C122.245 24.1053 123.077 22.8053 124.013 21.592C124.984 20.3787 126.007 19.3213 127.081 18.42C128.191 17.5187 129.317 16.808 130.461 16.288C131.64 15.768 132.801 15.508 133.945 15.508C135.54 15.716 137.031 16.704 138.417 18.472ZM134.829 20.188C133.893 20.3267 132.923 20.708 131.917 21.332C130.912 21.956 129.959 22.788 129.057 23.828C128.191 24.868 127.393 26.0813 126.665 27.468C125.937 28.8547 125.365 30.3453 124.949 31.94C127.723 30.5533 130.028 28.8547 131.865 26.844C133.703 24.7987 134.691 22.58 134.829 20.188Z" fill="#D28737"/>
</svg>
