<svg width="64" height="68" viewBox="0 0 64 68" fill="none" xmlns="http://www.w3.org/2000/svg">
<path fill-rule="evenodd" clip-rule="evenodd" d="M32.2634 0C14.737 0 0.530029 13.956 0.530029 31.1726C0.530029 48.3893 14.737 62.3453 32.2634 62.3453C49.7897 62.3453 63.9967 48.3893 63.9967 31.1726C63.9967 13.956 49.7897 0 32.2634 0ZM21.1567 23.3795C21.1567 21.9467 21.444 20.528 22.0021 19.2042C22.5603 17.8805 23.3784 16.6778 24.4098 15.6646C25.4411 14.6515 26.6655 13.8479 28.013 13.2996C29.3605 12.7513 30.8048 12.4691 32.2634 12.4691C33.7219 12.4691 35.1662 12.7513 36.5137 13.2996C37.8612 13.8479 39.0856 14.6515 40.117 15.6646C41.1483 16.6778 41.9664 17.8805 42.5246 19.2042C43.0827 20.528 43.37 21.9467 43.37 23.3795C43.37 26.2731 42.1999 29.0482 40.117 31.0943C38.0341 33.1404 35.209 34.2899 32.2634 34.2899C29.3177 34.2899 26.4927 33.1404 24.4098 31.0943C22.3269 29.0482 21.1567 26.2731 21.1567 23.3795ZM52.1221 46.7091C49.7459 49.6435 46.7258 52.0131 43.2873 53.641C39.8488 55.2689 36.0804 56.1131 32.2634 56.1108C28.4463 56.1131 24.678 55.2689 21.2394 53.641C17.8009 52.0131 14.7809 49.6435 12.4046 46.7091C17.5486 43.0837 24.568 40.5244 32.2634 40.5244C39.9587 40.5244 46.9781 43.0837 52.1221 46.7091Z" fill="white"/>
</svg>
