<svg width="30" height="30" viewBox="0 0 30 30" fill="none" xmlns="http://www.w3.org/2000/svg">
<path d="M9.75 27C10.9926 27 12 25.9255 12 24.6C12 23.2745 10.9926 22.2 9.75 22.2C8.50736 22.2 7.5 23.2745 7.5 24.6C7.5 25.9255 8.50736 27 9.75 27Z" fill="white"/>
<path d="M23.25 27C24.4926 27 25.5 25.9255 25.5 24.6C25.5 23.2745 24.4926 22.2 23.25 22.2C22.0074 22.2 21 23.2745 21 24.6C21 25.9255 22.0074 27 23.25 27Z" fill="white"/>
<path d="M3 3H6L6.9 7.8M6.9 7.8L9 19H24L27 7.8H6.9Z" stroke="white" stroke-width="3" stroke-linecap="round" stroke-linejoin="round"/>
</svg>
