<svg width="45" height="45" viewBox="0 0 45 45" fill="none" xmlns="http://www.w3.org/2000/svg">
<path fill-rule="evenodd" clip-rule="evenodd" d="M22.5001 1.79395C10.7765 1.79395 1.2699 11.2984 1.2699 23.0241C1.2699 32.4045 7.35298 40.3621 15.7884 43.1697C16.849 43.3666 17.2386 42.7091 17.2386 42.1484C17.2386 41.6422 17.2189 39.9698 17.2097 38.1958C11.3035 39.48 10.0572 35.6909 10.0572 35.6909C9.09146 33.237 7.69998 32.5845 7.69998 32.5845C5.77341 31.2668 7.84517 31.2943 7.84517 31.2943C9.9767 31.4437 11.0996 33.482 11.0996 33.482C12.9931 36.727 16.0661 35.789 17.2776 35.2469C17.4681 33.8747 18.0183 32.9378 18.6255 32.4077C13.91 31.8715 8.95259 30.0508 8.95259 21.916C8.95259 19.5981 9.78228 17.7043 11.1404 16.2171C10.9196 15.6828 10.1929 13.5235 11.3457 10.5992C11.3457 10.5992 13.1281 10.0286 17.1851 12.7754C18.879 12.3046 20.6955 12.068 22.5001 12.0599C24.3036 12.068 26.1211 12.3039 27.8181 12.7746C31.8702 10.0279 33.6506 10.5985 33.6506 10.5985C34.8061 13.5224 34.0795 15.6821 33.859 16.2164C35.2203 17.7036 36.044 19.5974 36.044 21.9153C36.044 30.0694 31.0775 31.8645 26.35 32.3904C27.1118 33.0493 27.7904 34.3416 27.7904 36.322C27.7904 39.1626 27.7658 41.4488 27.7658 42.148C27.7658 42.713 28.1483 43.375 29.224 43.1665C37.6545 40.3561 43.7306 32.401 43.7306 23.0241C43.7302 11.2991 34.2247 1.79395 22.5001 1.79395Z" fill="white"/>
<path d="M9.3109 32.2754C9.26414 32.3809 9.0982 32.4125 8.94703 32.3404C8.79234 32.2715 8.70621 32.1277 8.75613 32.0219C8.80183 31.9129 8.96812 31.8831 9.12175 31.9558C9.27644 32.0251 9.36433 32.1703 9.31054 32.2757L9.3109 32.2754ZM10.1708 33.2348C10.0699 33.3287 9.87199 33.2851 9.73769 33.1364C9.59847 32.9887 9.57246 32.7908 9.67547 32.6955C9.78023 32.602 9.97218 32.6463 10.1114 32.794C10.2499 32.9437 10.2773 33.1399 10.1712 33.2352L10.1708 33.2348ZM11.0082 34.4572C10.8782 34.5479 10.6651 34.4632 10.5336 34.2744C10.4036 34.0852 10.4036 33.8585 10.5371 33.7681C10.6683 33.6774 10.8782 33.7593 11.0118 33.9464C11.1411 34.138 11.1411 34.3651 11.0082 34.4572ZM12.1547 35.6388C12.0387 35.7671 11.7905 35.7327 11.6091 35.5579C11.4238 35.3867 11.3721 35.1431 11.4885 35.0151C11.6066 34.8865 11.8559 34.9223 12.0383 35.096C12.2236 35.2668 12.2795 35.5108 12.1554 35.6384L12.1547 35.6388ZM13.7367 36.3247C13.685 36.491 13.4467 36.5666 13.2059 36.4956C12.9657 36.4228 12.8086 36.2284 12.8578 36.0603C12.907 35.8926 13.1471 35.8142 13.3894 35.8898C13.6295 35.9622 13.7866 36.1556 13.7367 36.3247ZM15.4745 36.4516C15.4805 36.6267 15.2766 36.7715 15.0245 36.775C14.7703 36.781 14.5646 36.639 14.5622 36.4667C14.5622 36.2899 14.7619 36.1468 15.0157 36.1419C15.2678 36.1373 15.4748 36.2779 15.4748 36.4513L15.4745 36.4516ZM17.091 36.1767C17.1212 36.3472 16.9458 36.5226 16.6951 36.5694C16.449 36.6151 16.2205 36.5089 16.1889 36.3398C16.1586 36.1647 16.3372 35.9893 16.5833 35.9439C16.8343 35.9007 17.0593 36.0034 17.091 36.1767Z" fill="white"/>
</svg>
