<svg width="30" height="30" viewBox="0 0 30 30" fill="none" xmlns="http://www.w3.org/2000/svg">
<path d="M18.2496 4.0962C19.8638 5.67168 20.8741 7.73971 21.1115 9.95437C21.3489 12.169 20.799 14.396 19.5538 16.2628C19.7712 16.4393 19.9523 16.6336 20.2059 16.8102C20.5682 17.0927 21.0572 17.4459 21.6731 17.852C22.289 18.2758 22.6875 18.5407 22.8686 18.6819C23.6294 19.2293 24.1909 19.6885 24.5713 20.0593C25.1509 20.6243 25.6581 21.2071 26.0928 21.8251C26.5457 22.4431 26.8898 23.0435 27.1615 23.6616C27.4151 24.2796 27.5419 24.8623 27.4876 25.4274C27.4514 25.9925 27.234 26.4692 26.8355 26.8577C26.2377 27.4404 25.9479 27.4581 25.3683 27.4934C24.8068 27.5287 24.1909 27.4228 23.575 27.1579C22.9411 26.9107 22.3071 26.5575 21.6912 26.1161C21.0572 25.6923 20.4595 25.1978 19.8799 24.6328C19.4995 24.2619 19.0285 23.7145 18.4851 22.9906C18.304 22.761 18.0323 22.3725 17.6338 21.8251C17.2353 21.26 16.9092 20.8186 16.6194 20.4478C16.3296 20.0946 16.0941 19.8297 15.8224 19.5648C13.9425 20.5254 11.7971 20.8755 9.69875 20.5643C7.60044 20.253 5.65895 19.2965 4.15724 17.8343C0.280921 14.0378 0.280921 7.87507 4.15724 4.0962C5.0824 3.19387 6.18086 2.47808 7.38987 1.98972C8.59889 1.50136 9.89475 1.25 11.2034 1.25C12.5121 1.25 13.808 1.50136 15.017 1.98972C16.226 2.47808 17.3245 3.19387 18.2496 4.0962ZM15.6956 15.3269C16.879 14.1648 17.543 12.5938 17.543 10.9564C17.543 9.31904 16.879 7.74805 15.6956 6.58602C15.1075 6.011 14.4088 5.55477 13.6395 5.24347C12.8702 4.93217 12.0454 4.77194 11.2125 4.77194C10.3796 4.77194 9.5548 4.93217 8.7855 5.24347C8.0162 5.55477 7.31748 6.011 6.72937 6.58602C6.13952 7.15934 5.67152 7.8405 5.3522 8.59046C5.03288 9.34042 4.86851 10.1444 4.86851 10.9564C4.86851 11.7684 5.03288 12.5725 5.3522 13.3224C5.67152 14.0724 6.13952 14.7535 6.72937 15.3269C7.31748 15.9019 8.0162 16.3581 8.7855 16.6694C9.5548 16.9807 10.3796 17.141 11.2125 17.141C12.0454 17.141 12.8702 16.9807 13.6395 16.6694C14.4088 16.3581 15.1075 15.9019 15.6956 15.3269Z" fill="white"/>
</svg>
